<mxfile host="Electron" agent="Mozilla/5.0 (Windows NT 10.0; Win64; x64) AppleWebKit/537.36 (KHTML, like Gecko) draw.io/28.0.6 Chrome/138.0.7204.100 Electron/37.2.3 Safari/537.36" version="28.0.6">
  <diagram name="第 1 页" id="4-S_aAR4cd4ER7KxT5Eb">
    <mxGraphModel dx="1213" dy="828" grid="1" gridSize="10" guides="1" tooltips="1" connect="1" arrows="1" fold="1" page="1" pageScale="1" pageWidth="827" pageHeight="1169" math="0" shadow="0">
      <root>
        <mxCell id="0" />
        <mxCell id="1" parent="0" />
        <mxCell id="XmJOeP8d9jcaQMZHwrel-5" value="" style="whiteSpace=wrap;html=1;" vertex="1" parent="1">
          <mxGeometry x="55" y="280" width="120" height="290" as="geometry" />
        </mxCell>
        <mxCell id="XmJOeP8d9jcaQMZHwrel-1" value="Actor" style="shape=umlActor;verticalLabelPosition=bottom;verticalAlign=top;html=1;outlineConnect=0;" vertex="1" parent="1">
          <mxGeometry x="70" y="330" width="90" height="180" as="geometry" />
        </mxCell>
        <mxCell id="XmJOeP8d9jcaQMZHwrel-6" value="&lt;font style=&quot;font-size: 20px;&quot;&gt;使用学号查找到学生&lt;/font&gt;" style="rounded=0;whiteSpace=wrap;html=1;" vertex="1" parent="1">
          <mxGeometry x="220" y="395" width="120" height="60" as="geometry" />
        </mxCell>
        <mxCell id="XmJOeP8d9jcaQMZHwrel-7" value="" style="endArrow=classic;html=1;rounded=0;exitX=1;exitY=0.5;exitDx=0;exitDy=0;entryX=0;entryY=0.5;entryDx=0;entryDy=0;" edge="1" parent="1" source="XmJOeP8d9jcaQMZHwrel-5" target="XmJOeP8d9jcaQMZHwrel-6">
          <mxGeometry width="50" height="50" relative="1" as="geometry">
            <mxPoint x="390" y="450" as="sourcePoint" />
            <mxPoint x="440" y="400" as="targetPoint" />
          </mxGeometry>
        </mxCell>
        <mxCell id="XmJOeP8d9jcaQMZHwrel-8" value="" style="endArrow=classic;html=1;rounded=0;exitX=1;exitY=0.5;exitDx=0;exitDy=0;" edge="1" parent="1" source="XmJOeP8d9jcaQMZHwrel-6" target="XmJOeP8d9jcaQMZHwrel-9">
          <mxGeometry width="50" height="50" relative="1" as="geometry">
            <mxPoint x="390" y="430" as="sourcePoint" />
            <mxPoint x="400" y="425" as="targetPoint" />
          </mxGeometry>
        </mxCell>
        <mxCell id="XmJOeP8d9jcaQMZHwrel-14" value="" style="edgeStyle=orthogonalEdgeStyle;rounded=0;orthogonalLoop=1;jettySize=auto;html=1;" edge="1" parent="1" source="XmJOeP8d9jcaQMZHwrel-9" target="XmJOeP8d9jcaQMZHwrel-13">
          <mxGeometry relative="1" as="geometry" />
        </mxCell>
        <mxCell id="XmJOeP8d9jcaQMZHwrel-9" value="&lt;font style=&quot;font-size: 20px;&quot;&gt;老师提供新的姓名&lt;/font&gt;" style="rounded=0;whiteSpace=wrap;html=1;" vertex="1" parent="1">
          <mxGeometry x="380" y="395" width="120" height="60" as="geometry" />
        </mxCell>
        <mxCell id="XmJOeP8d9jcaQMZHwrel-13" value="&lt;span style=&quot;font-size: 20px;&quot;&gt;系统修改对应学生的姓名&lt;/span&gt;" style="rounded=0;whiteSpace=wrap;html=1;" vertex="1" parent="1">
          <mxGeometry x="540" y="395" width="140" height="60" as="geometry" />
        </mxCell>
      </root>
    </mxGraphModel>
  </diagram>
</mxfile>
